<svg width="24" height="22" viewBox="0 0 24 22" fill="none" xmlns="http://www.w3.org/2000/svg">
<path d="M23.8451 14.2656L21.0457 11.3867C20.8368 11.1719 20.5444 11.1719 20.3354 11.3867L17.5361 14.2656C17.2018 14.6094 17.4525 15.125 17.8703 15.125H19.7505C18.9149 17.9609 15.8648 19.6367 13.0237 19.8945V9.28125H15.5306C15.7812 9.28125 16.0319 9.06641 16.0319 8.76562V7.73438C16.0319 7.47656 15.7812 7.21875 15.5306 7.21875H13.0237V6.74609C14.3607 6.31641 15.3634 4.98438 15.3634 3.4375C15.3634 1.54688 13.8593 0 12.0209 0C10.1407 0 8.67836 1.54688 8.67836 3.4375C8.67836 4.98438 9.63933 6.31641 11.0181 6.74609V7.21875H8.51123C8.21876 7.21875 8.00985 7.47656 8.00985 7.73438V8.76562C8.00985 9.06641 8.21876 9.28125 8.51123 9.28125H11.0181V19.8945C8.13519 19.6367 5.08513 17.9609 4.2495 15.125H6.12967C6.54749 15.125 6.79818 14.6094 6.46393 14.2656L3.66455 11.3867C3.45564 11.1719 3.16317 11.1719 2.95426 11.3867L0.154892 14.2656C-0.179362 14.6094 0.0713282 15.125 0.489145 15.125H2.20219C3.03783 19.4219 7.55025 22 12.0209 22C16.7422 22 21.004 19.207 21.7978 15.125H23.5109C23.9287 15.125 24.1794 14.6094 23.8451 14.2656ZM12.0209 2.0625C12.7312 2.0625 13.3579 2.70703 13.3579 3.4375C13.3579 4.21094 12.7312 4.8125 12.0209 4.8125C11.2688 4.8125 10.6839 4.21094 10.6839 3.4375C10.6839 2.70703 11.2688 2.0625 12.0209 2.0625Z" fill="#003745"/>
</svg>
