<svg width="24" height="24" viewBox="0 0 24 24" fill="none" xmlns="http://www.w3.org/2000/svg">
<path fill-rule="evenodd" clip-rule="evenodd" d="M20 2H4C2.34315 2 1 3.34315 1 5V15C1 16.6569 2.34315 18 4 18H20C21.6569 18 23 16.6569 23 15V5C23 3.34315 21.6569 2 20 2ZM3 5C3 4.44772 3.44772 4 4 4H20C20.5523 4 21 4.44772 21 5V15C21 15.5523 20.5523 16 20 16H4C3.44772 16 3 15.5523 3 15V5Z" fill="#003745"/>
<path fill-rule="evenodd" clip-rule="evenodd" d="M8 22H16C16.5523 22 17 21.5523 17 21C17 20.4477 16.5523 20 16 20H8C7.44772 20 7 20.4477 7 21C7 21.5523 7.44772 22 8 22Z" fill="#003745"/>
<path fill-rule="evenodd" clip-rule="evenodd" d="M11 17V21C11 21.5523 11.4477 22 12 22C12.5523 22 13 21.5523 13 21V17C13 16.4477 12.5523 16 12 16C11.4477 16 11 16.4477 11 17Z" fill="#003745"/>
</svg>
