<svg width="20" height="20" viewBox="0 0 20 20" fill="none" xmlns="http://www.w3.org/2000/svg">
<path fill-rule="evenodd" clip-rule="evenodd" d="M8.5 17C3.80558 17 0 13.1944 0 8.5C0 3.80558 3.80558 0 8.5 0C13.1944 0 17 3.80558 17 8.5C17 10.4869 16.3183 12.3145 15.1761 13.7618L19.7072 18.2929C20.0977 18.6834 20.0977 19.3166 19.7072 19.7071C19.3166 20.0976 18.6835 20.0976 18.2929 19.7071L13.7618 15.176C12.3145 16.3183 10.4869 17 8.5 17ZM13.1596 13.0319C13.1367 13.051 13.1145 13.0714 13.0929 13.0929C13.0714 13.1144 13.0511 13.1366 13.032 13.1595C11.8611 14.2985 10.2625 15 8.5 15C4.91015 15 2 12.0899 2 8.5C2 4.91015 4.91015 2 8.5 2C12.0899 2 15 4.91015 15 8.5C15 10.2625 14.2986 11.8611 13.1596 13.0319Z" fill="#767676"/>
</svg>
